<svg version="1.1" xmlns="http://www.w3.org/2000/svg" viewBox="0 0 1944.9319858476242 625" width="1944.9319858476242" height="625">
  <!-- svg-source:excalidraw -->
  
  <defs>
    <style class="style-fonts">
      @font-face {
        font-family: "Virgil";
        src: url("https://excalidraw.com/Virgil.woff2");
      }
      @font-face {
        font-family: "Cascadia";
        src: url("https://excalidraw.com/Cascadia.woff2");
      }
    </style>
  </defs>
  <rect x="0" y="0" width="1944.9319858476242" height="625" fill="#ffffff"></rect><g stroke-linecap="round" transform="translate(1006.1666666666667 259.625) rotate(0 129.5 92.5)"><path d="M32 0 M32 0 C74.68 -2.54, 115.07 -1.2, 227 0 M32 0 C94.29 0.75, 155.59 -0.5, 227 0 M227 0 C247.68 -1.83, 260.34 9.59, 259 32 M227 0 C247.93 1.63, 260.84 10.85, 259 32 M259 32 C259.71 73.74, 257.99 116.75, 259 153 M259 32 C258.05 55.27, 257.85 80.29, 259 153 M259 153 C258.13 173.03, 250.02 184.37, 227 185 M259 153 C259.95 176.58, 247.97 183.61, 227 185 M227 185 C182.21 184.09, 140.26 183.25, 32 185 M227 185 C151.75 186.47, 78.16 185.55, 32 185 M32 185 C11.46 184.44, 1.06 175.53, 0 153 M32 185 C9.64 187.28, 0.13 176.33, 0 153 M0 153 C-2.23 110.07, -1.24 68.69, 0 32 M0 153 C0.82 124.61, 0.29 95.16, 0 32 M0 32 C-0.71 8.7, 11.06 0.7, 32 0 M0 32 C-2.13 10.34, 8.41 0.4, 32 0" stroke="#000000" stroke-width="1" fill="none"></path></g><g transform="translate(1067.3291651407878 339.625) rotate(0 68.3375015258789 12.5)"><text x="68.3375015258789" y="0" font-family="Virgil, Segoe UI Emoji" font-size="20px" fill="#000000" text-anchor="middle" style="white-space: pre;" direction="ltr" dominant-baseline="text-before-edge">h264_glitcher</text></g><g stroke-linecap="round" transform="translate(1466.5 259.625) rotate(0 129.5 92.5)"><path d="M32 0 M32 0 C75 1.21, 120.82 0.38, 227 0 M32 0 C105.96 -1.57, 181.57 -2.49, 227 0 M227 0 C249.12 -0.56, 260.06 11.86, 259 32 M227 0 C247.31 2.28, 259.13 12.67, 259 32 M259 32 C258.44 75.17, 259.44 119.9, 259 153 M259 32 C258.98 61.93, 258.46 90.81, 259 153 M259 153 C258.29 172.37, 248.72 185.7, 227 185 M259 153 C256.87 174.01, 246.07 185.4, 227 185 M227 185 C165.81 186.23, 108.45 185.36, 32 185 M227 185 C150.09 185.53, 72.11 184.18, 32 185 M32 185 C11.25 185.02, -0.15 176.15, 0 153 M32 185 C11.93 185.83, 0.36 175.6, 0 153 M0 153 C1.63 123.35, 2.29 92.08, 0 32 M0 153 C0.62 106.77, 0.37 60.34, 0 32 M0 32 C0.34 10.74, 12.28 1.36, 32 0 M0 32 C1.54 9.78, 11.04 -1.32, 32 0" stroke="#000000" stroke-width="1" fill="none"></path></g><g transform="translate(1579.5249996185303 339.625) rotate(0 16.475000381469727 12.5)"><text x="16.475000381469727" y="0" font-family="Virgil, Segoe UI Emoji" font-size="20px" fill="#000000" text-anchor="middle" style="white-space: pre;" direction="ltr" dominant-baseline="text-before-edge">mpv</text></g><g stroke-linecap="round" transform="translate(545.8333333333334 259.625) rotate(0 129.50000000000006 92.5)"><path d="M32 0 M32 0 C90.1 -0.58, 146.78 0.16, 227 0 M32 0 C75.37 2.52, 119.36 1.11, 227 0 M227 0 C248.47 0.42, 257.58 12.22, 259 32 M227 0 C249.92 1.28, 259.18 12.74, 259 32 M259 32 C258.9 66.6, 261.15 104.58, 259 153 M259 32 C257.96 67.75, 257.28 103.17, 259 153 M259 153 C259.14 174.98, 246.53 183.22, 227 185 M259 153 C260.14 174.09, 249.39 186.05, 227 185 M227 185 C182.45 182.75, 137.76 185.53, 32 185 M227 185 C154.26 185.11, 82.93 183.96, 32 185 M32 185 C12.5 184.14, 0.7 173.11, 0 153 M32 185 C11.33 187.24, 1.08 172.94, 0 153 M0 153 C-1.03 116.06, 0.5 81.1, 0 32 M0 153 C-1.22 124.57, -0.8 96.8, 0 32 M0 32 C1.52 12.35, 12 -1.31, 32 0 M0 32 C-0.99 10.61, 10.31 -0.07, 32 0" stroke="#000000" stroke-width="1" fill="none"></path></g><g transform="translate(589.3458302815756 327.125) rotate(0 85.98750305175781 25)"><text x="85.98750305175781" y="0" font-family="Virgil, Segoe UI Emoji" font-size="20px" fill="#000000" text-anchor="middle" style="white-space: pre;" direction="ltr" dominant-baseline="text-before-edge">OpenStageControl</text><text x="85.98750305175781" y="25" font-family="Virgil, Segoe UI Emoji" font-size="20px" fill="#000000" text-anchor="middle" style="white-space: pre;" direction="ltr" dominant-baseline="text-before-edge">Server</text></g><g stroke-linecap="round" transform="translate(85.5 259.625) rotate(0 129.5 92.5)"><path d="M32 0 M32 0 C91.34 -2.56, 148.47 -1.47, 227 0 M32 0 C100.94 0.91, 170.72 1.27, 227 0 M227 0 C248.57 1.68, 260.93 9.77, 259 32 M227 0 C248.31 -0.66, 257 12.68, 259 32 M259 32 C257.41 58.88, 258.79 87.33, 259 153 M259 32 C257.26 73.1, 257.82 113.9, 259 153 M259 153 C260.33 175.64, 247.28 183.51, 227 185 M259 153 C260.2 173.57, 248.92 184.39, 227 185 M227 185 C177.53 183.28, 126.91 186.26, 32 185 M227 185 C186.67 186.21, 145.11 186.28, 32 185 M32 185 C9.21 184.14, 0.18 172.83, 0 153 M32 185 C11.91 186.57, 1.64 176.4, 0 153 M0 153 C2.08 111.27, -1.25 68.87, 0 32 M0 153 C0.42 124, -1.1 97.16, 0 32 M0 32 C-0.52 12.25, 9.12 0.82, 32 0 M0 32 C-1.26 12.9, 9 -1.08, 32 0" stroke="#000000" stroke-width="1" fill="none"></path></g><g transform="translate(129.0124969482422 327.125) rotate(0 85.98750305175781 25)"><text x="85.98750305175781" y="0" font-family="Virgil, Segoe UI Emoji" font-size="20px" fill="#000000" text-anchor="middle" style="white-space: pre;" direction="ltr" dominant-baseline="text-before-edge">OpenStageControl</text><text x="85.98750305175781" y="25" font-family="Virgil, Segoe UI Emoji" font-size="20px" fill="#000000" text-anchor="middle" style="white-space: pre;" direction="ltr" dominant-baseline="text-before-edge">Client</text></g><g mask="url(#mask-Lp5Ldgkq6NhFoWKiTc_MZ)" stroke-linecap="round"><g transform="translate(1278 348) rotate(0 87.23583332041744 1.3221535925101477)"><path d="M0.21 0.7 C29.49 0.92, 146.21 1.01, 175.61 1.4 M-1.14 0.02 C27.96 0.39, 144.9 2.42, 174.46 2.63" stroke="#000000" stroke-width="1" fill="none"></path></g><g transform="translate(1278 348) rotate(0 87.23583332041744 1.3221535925101477)"><path d="M147.3 11.88 C153.44 10.64, 164.47 8.62, 172.84 1.07 M145.49 12.58 C153.94 10.42, 160.6 8.51, 174.7 2.2" stroke="#000000" stroke-width="1" fill="none"></path></g><g transform="translate(1278 348) rotate(0 87.23583332041744 1.3221535925101477)"><path d="M147.57 -8.64 C153.63 -3.86, 164.58 0.12, 172.84 1.07 M145.75 -7.94 C154.01 -4.92, 160.61 -1.64, 174.7 2.2" stroke="#000000" stroke-width="1" fill="none"></path></g></g><mask id="mask-Lp5Ldgkq6NhFoWKiTc_MZ"><rect x="0" y="0" fill="#fff" width="1554" height="450"></rect><rect x="1323.8624992370605" y="336.5" fill="#000" width="84.2750015258789" height="25" opacity="1"></rect></mask><g transform="translate(1323.8624992370605 336.5) rotate(0 41.373334083356895 12.822153592510148)"><text x="42.13750076293945" y="0" font-family="Virgil, Segoe UI Emoji" font-size="20px" fill="#000000" text-anchor="middle" style="white-space: pre;" direction="ltr" dominant-baseline="text-before-edge">Unix pipe</text></g><g mask="url(#mask-tm_kN452y-iPDqC3OS-70)" stroke-linecap="round"><g transform="translate(820 355) rotate(0 83.12420103310149 -0.8462606629449851)"><path d="M-0.69 -0.27 C26.98 -0.3, 137.2 -1.01, 164.84 -1.16 M1.15 -1.46 C29.27 -1.31, 139.21 -0.4, 166.94 -0.23" stroke="#000000" stroke-width="1" fill="none"></path></g><g transform="translate(820 355) rotate(0 83.12420103310149 -0.8462606629449851)"><path d="M26.99 -12.62 C19.75 -10.21, 14.07 -5.42, -2.27 1.2 M28.14 -11.45 C19.26 -7.61, 10.12 -4.1, -0.51 0.43" stroke="#000000" stroke-width="1" fill="none"></path></g><g transform="translate(820 355) rotate(0 83.12420103310149 -0.8462606629449851)"><path d="M27.1 7.9 C20 6.16, 14.3 6.81, -2.27 1.2 M28.24 9.07 C19.2 6.23, 10.03 3.07, -0.51 0.43" stroke="#000000" stroke-width="1" fill="none"></path></g><g transform="translate(820 355) rotate(0 83.12420103310149 -0.8462606629449851)"><path d="M138.22 7.89 C142.53 6.48, 148.23 7.14, 165.36 1.24 M139.36 9.05 C148.7 6.24, 157.9 3.1, 167.12 0.47" stroke="#000000" stroke-width="1" fill="none"></path></g><g transform="translate(820 355) rotate(0 83.12420103310149 -0.8462606629449851)"><path d="M138.37 -12.64 C142.48 -9.9, 148.16 -5.09, 165.36 1.24 M139.51 -11.47 C148.93 -7.6, 158.08 -4.07, 167.12 0.47" stroke="#000000" stroke-width="1" fill="none"></path></g></g><mask id="mask-tm_kN452y-iPDqC3OS-70"><rect x="0" y="0" fill="#fff" width="1086" height="455"></rect><rect x="883.2250003814697" y="342.5" fill="#000" width="39.54999923706055" height="25" opacity="1"></rect></mask><g transform="translate(883.2250003814697 342.5) rotate(0 19.89920065163176 11.653739337055015)"><text x="19.774999618530273" y="0" font-family="Virgil, Segoe UI Emoji" font-size="20px" fill="#000000" text-anchor="middle" style="white-space: pre;" direction="ltr" dominant-baseline="text-before-edge">OSC</text></g><g transform="translate(977 218) rotate(0 164.14999389648438 12)"><text x="0" y="0" font-family="Cascadia, Segoe UI Emoji" font-size="20px" fill="#000000" text-anchor="start" style="white-space: pre;" direction="ltr" dominant-baseline="text-before-edge">--listen_addr 127.0.0.1:8000</text></g><g mask="url(#mask-iAXgY7c-xM-EtWr8EktWW)" stroke-linecap="round"><g transform="translate(362 352) rotate(0 83.06840973569547 0.6248285576701278)"><path d="M0.01 -1.01 C28.13 -0.71, 139.75 1.78, 167.58 2.26 M-1.45 1.07 C26.57 0.95, 137.94 -0.06, 166.41 0.28" stroke="#000000" stroke-width="1" fill="none"></path></g><g transform="translate(362 352) rotate(0 83.06840973569547 0.6248285576701278)"><path d="M136.54 9.84 C144.45 6.77, 149.63 7.95, 166.11 0.32 M137.6 10.96 C143.45 8.21, 148.82 6.36, 165.81 0.79" stroke="#000000" stroke-width="1" fill="none"></path></g><g transform="translate(362 352) rotate(0 83.06840973569547 0.6248285576701278)"><path d="M136.54 -10.68 C144.54 -9.5, 149.71 -4.08, 166.11 0.32 M137.6 -9.56 C143.35 -8.12, 148.71 -5.77, 165.81 0.79" stroke="#000000" stroke-width="1" fill="none"></path></g></g><mask id="mask-iAXgY7c-xM-EtWr8EktWW"><rect x="0" y="0" fill="#fff" width="630" height="454"></rect><rect x="395.3499984741211" y="340.5" fill="#000" width="101.30000305175781" height="25" opacity="1"></rect></mask><g transform="translate(395.3499984741211 340.5) rotate(0 49.718411261574374 12.124828557670128)"><text x="50.650001525878906" y="0" font-family="Virgil, Segoe UI Emoji" font-size="20px" fill="#000000" text-anchor="middle" style="white-space: pre;" direction="ltr" dominant-baseline="text-before-edge">WebSocket</text></g><g mask="url(#mask-QzgiIgtqtGpWn5X3xb7aD)" stroke-linecap="round"><g transform="translate(215 466) rotate(0 466.05885264426473 39.97213761731399)"><path d="M-0.96 0.43 C73.37 14.45, 290.27 83.46, 445.94 83.18 C601.61 82.89, 851.76 12.74, 933.08 -1.27 M0.74 -0.4 C74.99 13.41, 290.22 82.15, 445.48 81.67 C600.75 81.2, 850.85 10.87, 932.35 -3.23" stroke="#000000" stroke-width="1" fill="none"></path></g><g transform="translate(215 466) rotate(0 466.05885264426473 39.97213761731399)"><path d="M907.71 14.38 C916.69 8.34, 923.53 4.76, 934.13 -1.84 M907.14 12.49 C914.23 8.24, 919.95 4.53, 932.69 -2.81" stroke="#000000" stroke-width="1" fill="none"></path></g><g transform="translate(215 466) rotate(0 466.05885264426473 39.97213761731399)"><path d="M903.32 -5.66 C913.45 -5.67, 921.61 -3.24, 934.13 -1.84 M902.75 -7.56 C911.09 -6.78, 917.91 -5.47, 932.69 -2.81" stroke="#000000" stroke-width="1" fill="none"></path></g></g><mask id="mask-QzgiIgtqtGpWn5X3xb7aD"><rect x="0" y="0" fill="#fff" width="1248" height="650"></rect><rect x="631.7999992370605" y="535.5" fill="#000" width="56.400001525878906" height="25" opacity="1"></rect></mask><g transform="translate(631.7999992370605 535.5) rotate(0 49.258853407204185 -29.52786238268601)"><text x="28.200000762939453" y="0" font-family="Virgil, Segoe UI Emoji" font-size="20px" fill="#000000" text-anchor="middle" style="white-space: pre;" direction="ltr" dominant-baseline="text-before-edge">HTTP</text></g><g transform="translate(990 529) rotate(0 234.5 12)"><text x="0" y="0" font-family="Cascadia, Segoe UI Emoji" font-size="20px" fill="#000000" text-anchor="start" style="white-space: pre;" direction="ltr" dominant-baseline="text-before-edge">--thumbnail_server_listen_addr [::]:3000</text></g><g transform="translate(991 561) rotate(0 287.26251220703125 12)"><text x="0" y="0" font-family="Cascadia, Segoe UI Emoji" font-size="20px" fill="#000000" text-anchor="start" style="white-space: pre;" direction="ltr" dominant-baseline="text-before-edge">--thumbnail_server_base_url http://10.0.0.1:3000/</text></g><g transform="translate(669 219) rotate(0 117.25 12)"><text x="0" y="0" font-family="Cascadia, Segoe UI Emoji" font-size="20px" fill="#000000" text-anchor="start" style="white-space: pre;" direction="ltr" dominant-baseline="text-before-edge">send: 127.0.0.1:8000</text></g><g transform="translate(511 221) rotate(0 58.625 12)"><text x="0" y="0" font-family="Cascadia, Segoe UI Emoji" font-size="20px" fill="#000000" text-anchor="start" style="white-space: pre;" direction="ltr" dominant-baseline="text-before-edge">port: 8080</text></g><g stroke-linecap="round" transform="translate(10 52) rotate(0 221 281.5)"><path d="M32 0 M32 0 C143.83 -0.92, 255.85 -1.59, 410 0 M410 0 C430.15 1.19, 442.43 11.54, 442 32 M442 32 C441.2 230.01, 440.97 427.19, 442 531 M442 531 C440.87 550.65, 431.52 562.96, 410 563 M410 563 C304.84 564.64, 201.51 564.51, 32 563 M32 563 C11.79 562.58, 1.05 552.15, 0 531 M0 531 C-1.8 395.2, -0.99 259.37, 0 32 M0 32 C-1.97 9.58, 10.39 0.49, 32 0" stroke="#000000" stroke-width="1.5" fill="none" stroke-dasharray="1.5 7"></path></g><g stroke-linecap="round" transform="translate(473 50.5) rotate(0 668 281.5)"><path d="M32 0 M32 0 C308.3 1.71, 586.01 1.75, 1304 0 M1304 0 C1326.97 -1.9, 1337.77 10.03, 1336 32 M1336 32 C1336.66 180.58, 1336.53 329.16, 1336 531 M1336 531 C1336.49 552.55, 1326.01 564.35, 1304 563 M1304 563 C853.47 563.75, 402.73 563.8, 32 563 M32 563 C10.36 561.96, -1.77 550.72, 0 531 M0 531 C1.48 358.15, 2.07 186.27, 0 32 M0 32 C0.89 11.41, 12.33 -0.8, 32 0" stroke="#000000" stroke-width="1.5" fill="none" stroke-dasharray="1.5 7"></path></g><g mask="url(#mask-1Apnt2h-VJPqpR1d3sfLx)" stroke-linecap="round"><g transform="translate(1741 351) rotate(0 96.491087896051 0.973913863421501)"><path d="M0.33 1.04 C32.27 1.15, 159.58 1.83, 191.83 1.85 M-0.95 0.54 C31.32 0.82, 161.52 -0.16, 193.93 0.17" stroke="#000000" stroke-width="1" fill="none"></path></g><g transform="translate(1741 351) rotate(0 96.491087896051 0.973913863421501)"><path d="M167.47 8.48 C176.03 8.47, 183.81 3.53, 195.5 -0.79 M165.03 9.54 C176.33 7.03, 184.92 2.22, 194.56 -0.55" stroke="#000000" stroke-width="1" fill="none"></path></g><g transform="translate(1741 351) rotate(0 96.491087896051 0.973913863421501)"><path d="M167.48 -12.04 C176.24 -5.51, 184.02 -3.91, 195.5 -0.79 M165.03 -10.98 C176.18 -6.35, 184.77 -4.01, 194.56 -0.55" stroke="#000000" stroke-width="1" fill="none"></path></g></g><mask id="mask-1Apnt2h-VJPqpR1d3sfLx"><rect x="0" y="0" fill="#fff" width="2034" height="452"></rect><rect x="1811.0750007629395" y="339" fill="#000" width="52.849998474121094" height="25" opacity="1"></rect></mask><g transform="translate(1811.0750007629395 339) rotate(0 26.416087133111546 12.973913863421501)"><text x="26.424999237060547" y="0" font-family="Virgil, Segoe UI Emoji" font-size="20px" fill="#000000" text-anchor="middle" style="white-space: pre;" direction="ltr" dominant-baseline="text-before-edge">HDMI</text></g><g transform="translate(43 12) rotate(0 33.537498474121094 12.5)"><text x="0" y="0" font-family="Virgil, Segoe UI Emoji" font-size="20px" fill="#000000" text-anchor="start" style="white-space: pre;" direction="ltr" dominant-baseline="text-before-edge">Tablet</text></g><g transform="translate(518 10) rotate(0 72.9625015258789 12.5)"><text x="0" y="0" font-family="Virgil, Segoe UI Emoji" font-size="20px" fill="#000000" text-anchor="start" style="white-space: pre;" direction="ltr" dominant-baseline="text-before-edge">Laptop 10.0.0.1</text></g><g transform="translate(59 221) rotate(0 170.0124969482422 12)"><text x="0" y="0" font-family="Cascadia, Segoe UI Emoji" font-size="20px" fill="#000000" text-anchor="start" style="white-space: pre;" direction="ltr" dominant-baseline="text-before-edge">Browser: http://10.0.0.1:8080</text></g></svg>